# xmcd
#
# Track frame offsets:
#	150
#	12520
#	23952
#	47097
#	76577
#	104952
#	139260
#	162575
#	174105
#	179010
#	224602
#
# Disc length: 3545 seconds
#
# Revision: 1
# Processed by: cddbd v1.5.2PL0 Copyright (c) Steve Scherf et al.
# Submitted via: audiograbber 1.83.01
#
DISCID=9c0dd70b
DTITLE=Böhm - Der Freischütz 2
DYEAR=1972
DGENRE=Oper
TTITLE0=Milch des Mondes fiel aufs Kraut!
TTITLE1=Samiel! Samiel! Erschein'!
TTITLE2=Trrefflich bedient!
TTITLE3=Hier bin ich! Was hab' ich zu tun?
TTITLE4=Akt III Und ob die Wolke sie verhülle
TTITLE5=Agathe, ich glaube gar - Einst träumte meiner sel'gen Base
TTITLE6=Wir winden dir den Jungfernkranz
TTITLE7=Was gleicht wohl auf Erden
TTITLE8=Genug der Freunden des Mahls
TTITLE9=Schaut! O schaut! Er traf die eigne Braut!
TTITLE10=Wer legt auf ihn so strengen Bann!
EXTD=
EXTT0=
EXTT1=
EXTT2=
EXTT3=
EXTT4=
EXTT5=
EXTT6=
EXTT7=
EXTT8=
EXTT9=
EXTT10=
PLAYORDER=
